<svg width="102" height="24" viewBox="0 0 102 24" fill="none" xmlns="http://www.w3.org/2000/svg" role="img" aria-label="CourtPlay">
<g id="CourtPlay">
<path d="M7.69398 19.112C6.59583 19.112 5.57414 18.9095 4.6289 18.5044C3.69756 18.0993 2.88437 17.5406 2.18934 16.8283C1.50821 16.1019 0.973041 15.2499 0.583825 14.2721C0.194608 13.2944 0 12.2188 0 11.0455C0 9.88619 0.187658 8.81764 0.562974 7.83989C0.952191 6.84816 1.49431 5.99612 2.18934 5.28376C2.88437 4.55742 3.69756 3.99871 4.6289 3.6076C5.56024 3.20253 6.58193 3 7.69398 3C8.79212 3 9.77212 3.18857 10.634 3.5657C11.5097 3.94284 12.2464 4.4387 12.8441 5.05329C13.4419 5.65391 13.8728 6.3104 14.1369 7.02276L11.9267 8.07036C11.5931 7.23228 11.0579 6.55484 10.3212 6.03802C9.59836 5.50724 8.72262 5.24185 7.69398 5.24185C6.66533 5.24185 5.75485 5.48629 4.96251 5.97517C4.17018 6.46405 3.5516 7.14149 3.10678 8.0075C2.67586 8.87352 2.4604 9.88619 2.4604 11.0455C2.4604 12.2049 2.67586 13.2245 3.10678 14.1045C3.5516 14.9705 4.17018 15.648 4.96251 16.1368C5.75485 16.6117 6.66533 16.8492 7.69398 16.8492C8.72262 16.8492 9.59836 16.5908 10.3212 16.074C11.0579 15.5572 11.5931 14.8797 11.9267 14.0416L14.1369 15.0892C13.8728 15.7876 13.4419 16.4441 12.8441 17.0587C12.2464 17.6733 11.5097 18.1692 10.634 18.5463C9.77212 18.9234 8.79212 19.112 7.69398 19.112Z" fill="white"/>
<path d="M22.0931 19.112C21.0089 19.112 20.015 18.8536 19.1115 18.3368C18.2218 17.82 17.5129 17.1146 16.9847 16.2206C16.4565 15.3267 16.1923 14.314 16.1923 13.1826C16.1923 12.0373 16.4565 11.0246 16.9847 10.1446C17.5129 9.25065 18.2218 8.55225 19.1115 8.04941C20.0011 7.53259 20.995 7.27419 22.0931 7.27419C23.2052 7.27419 24.1991 7.53259 25.0748 8.04941C25.9645 8.55225 26.6664 9.25065 27.1808 10.1446C27.709 11.0246 27.9731 12.0373 27.9731 13.1826C27.9731 14.328 27.709 15.3477 27.1808 16.2416C26.6525 17.1355 25.9436 17.8409 25.054 18.3577C24.1643 18.8606 23.1774 19.112 22.0931 19.112ZM22.0931 16.9121C22.7604 16.9121 23.3511 16.7514 23.8655 16.4302C24.3798 16.1089 24.7829 15.6689 25.0748 15.1102C25.3806 14.5375 25.5335 13.895 25.5335 13.1826C25.5335 12.4703 25.3806 11.8347 25.0748 11.276C24.7829 10.7173 24.3798 10.2773 23.8655 9.95603C23.3511 9.63477 22.7604 9.47414 22.0931 9.47414C21.4398 9.47414 20.849 9.63477 20.3208 9.95603C19.8065 10.2773 19.3964 10.7173 19.0906 11.276C18.7987 11.8347 18.6527 12.4703 18.6527 13.1826C18.6527 13.895 18.7987 14.5375 19.0906 15.1102C19.3964 15.6689 19.8065 16.1089 20.3208 16.4302C20.849 16.7514 21.4398 16.9121 22.0931 16.9121Z" fill="white"/>
<path d="M34.7146 19.112C33.8667 19.112 33.123 18.9234 32.4836 18.5463C31.8441 18.1552 31.3437 17.6174 30.9823 16.933C30.6348 16.2346 30.461 15.4315 30.461 14.5235V7.52561H32.8172V14.314C32.8172 14.8308 32.9214 15.2848 33.1299 15.6759C33.3384 16.067 33.6304 16.3743 34.0057 16.5978C34.381 16.8073 34.8119 16.9121 35.2984 16.9121C35.7989 16.9121 36.2367 16.8003 36.612 16.5768C36.9874 16.3533 37.2793 16.0391 37.4878 15.634C37.7102 15.2289 37.8214 14.754 37.8214 14.2093V7.52561H40.1567V18.8606H37.9256V16.6397L38.1759 16.933C37.9117 17.6314 37.4739 18.1692 36.8622 18.5463C36.2506 18.9234 35.5347 19.112 34.7146 19.112Z" fill="white"/>
<path d="M43.3247 18.8606V7.52561H45.5766V9.80937L45.3681 9.47414C45.6183 8.73384 46.0214 8.20305 46.5775 7.88179C47.1335 7.54656 47.8007 7.37895 48.5792 7.37895H49.2672V9.53699H48.2872C47.5088 9.53699 46.8763 9.78143 46.3898 10.2703C45.9172 10.7452 45.6809 11.4296 45.6809 12.3236V18.8606H43.3247Z" fill="white"/>
<path d="M56.3788 18.9863C55.1973 18.9863 54.2798 18.6511 53.6265 17.9806C52.9732 17.3101 52.6465 16.3673 52.6465 15.1521V9.6627H50.6657V7.52561H50.9785C51.5067 7.52561 51.9168 7.37196 52.2087 7.06467C52.5006 6.75737 52.6465 6.33834 52.6465 5.80755V4.92757H55.0027V7.52561H57.5673V9.6627H55.0027V15.0473C55.0027 15.4384 55.0652 15.7737 55.1903 16.053C55.3155 16.3184 55.517 16.5279 55.795 16.6816C56.073 16.8213 56.4344 16.8911 56.8793 16.8911C56.9905 16.8911 57.1156 16.8841 57.2546 16.8702C57.3936 16.8562 57.5256 16.8422 57.6507 16.8283V18.8606C57.4561 18.8885 57.2407 18.9165 57.0044 18.9444C56.7681 18.9723 56.5596 18.9863 56.3788 18.9863Z" fill="white"/>
<path d="M60.8416 18.8606V3.25142H66.4922C67.5347 3.25142 68.4522 3.44697 69.2445 3.83808C70.0507 4.21521 70.6763 4.77393 71.1211 5.51423C71.5659 6.24056 71.7883 7.11356 71.7883 8.13321C71.7883 9.13891 71.5589 10.0049 71.1002 10.7312C70.6554 11.4576 70.0368 12.0163 69.2445 12.4074C68.4522 12.7985 67.5347 12.9941 66.4922 12.9941H63.302V18.8606H60.8416ZM63.302 10.7941H66.5547C67.1108 10.7941 67.5973 10.6824 68.0143 10.4589C68.4313 10.2354 68.758 9.92809 68.9943 9.53699C69.2306 9.13192 69.3488 8.65701 69.3488 8.11226C69.3488 7.56751 69.2306 7.09959 68.9943 6.70849C68.758 6.30342 68.4313 5.99612 68.0143 5.7866C67.5973 5.56311 67.1108 5.45137 66.5547 5.45137H63.302V10.7941Z" fill="url(#cp-logo-grad)"/>
<path d="M74.509 18.8606V3H76.8652V18.8606H74.509Z" fill="url(#cp-logo-grad)"/>
<path d="M83.4148 19.112C82.6503 19.112 81.9761 18.9793 81.3923 18.7139C80.8223 18.4346 80.3775 18.0574 80.0578 17.5825C79.7381 17.0936 79.5782 16.521 79.5782 15.8645C79.5782 15.2499 79.7103 14.6981 79.9744 14.2093C80.2524 13.7204 80.6764 13.3083 81.2463 12.9731C81.8162 12.6379 82.5321 12.4004 83.3939 12.2607L87.3139 11.6112V13.4759L83.8527 14.0836C83.2271 14.1953 82.7684 14.3978 82.4765 14.6912C82.1846 14.9705 82.0386 15.3337 82.0386 15.7807C82.0386 16.2137 82.1985 16.5698 82.5182 16.8492C82.8518 17.1146 83.2758 17.2473 83.7901 17.2473C84.4295 17.2473 84.9855 17.1076 85.4582 16.8283C85.9447 16.5489 86.32 16.1787 86.5841 15.7178C86.8482 15.2429 86.9803 14.7191 86.9803 14.1464V11.2341C86.9803 10.6754 86.7718 10.2214 86.3548 9.87222C85.9516 9.50906 85.4095 9.32747 84.7284 9.32747C84.1029 9.32747 83.5538 9.49509 83.0812 9.83032C82.6225 10.1516 82.2819 10.5706 82.0595 11.0874L80.0995 10.1027C80.308 9.54398 80.6486 9.0551 81.1212 8.63606C81.5938 8.20305 82.1429 7.86782 82.7684 7.63037C83.4078 7.39291 84.082 7.27419 84.7909 7.27419C85.6806 7.27419 86.466 7.4418 87.1471 7.77703C87.8421 8.11226 88.3773 8.58019 88.7526 9.18081C89.1418 9.76746 89.3364 10.4519 89.3364 11.2341V18.8606H87.0845V16.8073L87.5641 16.8702C87.3 17.3311 86.9594 17.7292 86.5424 18.0644C86.1393 18.3996 85.6736 18.658 85.1454 18.8396C84.6311 19.0212 84.0542 19.112 83.4148 19.112Z" fill="url(#cp-logo-grad)"/>
<path d="M92.7422 23.47C92.4642 23.47 92.1862 23.4421 91.9082 23.3862C91.6441 23.3443 91.4008 23.2745 91.1784 23.1767V21.1443C91.3452 21.1862 91.5468 21.2212 91.7831 21.2491C92.0194 21.291 92.2487 21.312 92.4711 21.312C93.1245 21.312 93.6041 21.1653 93.9099 20.872C94.2296 20.5926 94.5145 20.1596 94.7648 19.573L95.5154 17.8549L95.4737 19.8453L90.5946 7.52561H93.1175L96.7247 16.9749H95.8698L99.4562 7.52561H102L97.0166 20.0967C96.7525 20.7672 96.4189 21.3539 96.0158 21.8567C95.6266 22.3735 95.1609 22.7716 94.6188 23.051C94.0906 23.3303 93.465 23.47 92.7422 23.47Z" fill="url(#cp-logo-grad)"/>
</g>
<defs>
<linearGradient id="cp-logo-grad" x1="-1.40482" y1="-25.2324" x2="104.407" y2="-25.2324" gradientUnits="userSpaceOnUse">
<stop offset="0.595714" stop-color="#60A5FA"/>
<stop offset="1" stop-color="#1DB967"/>
</linearGradient>
</defs>
</svg>
