<svg
  xmlns="http://www.w3.org/2000/svg"
  width="503.8"
  height="161.0"
  viewBox="0 0 503.8 161.0"
>
  <!--
    CourtPlay wordmark — Plus Jakarta Sans 800, fully outlined
    Transparent background — drop directly into any context
  -->
  <defs>
    <linearGradient id="sub-grad"
      x1="295.58" y1="0"
      x2="479.81" y2="0"
      gradientUnits="userSpaceOnUse">
      <stop offset="0%"   stop-color="#60A5FA"/>
      <stop offset="100%" stop-color="#1DB967"/>
    </linearGradient>
  </defs>
  <!-- Court — white -->
  <path id="court" d="M 64.320 120.800 Q 56.640 120.800 50.064 118.016 Q 43.488 115.232 38.592 110.240 Q 33.696 105.248 30.960 98.528 Q 28.224 91.808 28.224 83.840 Q 28.224 75.872 30.912 69.104 Q 33.600 62.336 38.496 57.392 Q 43.392 52.448 49.968 49.712 Q 56.544 46.976 64.320 46.976 Q 72.096 46.976 78.288 49.568 Q 84.480 52.160 88.800 56.480 Q 93.120 60.800 94.944 66.080 L 81.792 72.416 Q 79.968 67.232 75.408 63.824 Q 70.848 60.416 64.320 60.416 Q 57.984 60.416 53.184 63.392 Q 48.384 66.368 45.744 71.600 Q 43.104 76.832 43.104 83.840 Q 43.104 90.848 45.744 96.128 Q 48.384 101.408 53.184 104.384 Q 57.984 107.360 64.320 107.360 Q 70.848 107.360 75.408 103.952 Q 79.968 100.544 81.792 95.360 L 94.944 101.696 Q 93.120 106.976 88.800 111.296 Q 84.480 115.616 78.288 118.208 Q 72.096 120.800 64.320 120.800 Z M 129.408 120.800 Q 121.632 120.800 115.248 117.248 Q 108.864 113.696 105.072 107.504 Q 101.280 101.312 101.280 93.440 Q 101.280 85.472 105.072 79.328 Q 108.864 73.184 115.248 69.632 Q 121.632 66.080 129.408 66.080 Q 137.184 66.080 143.520 69.632 Q 149.856 73.184 153.648 79.328 Q 157.440 85.472 157.440 93.440 Q 157.440 101.312 153.648 107.504 Q 149.856 113.696 143.520 117.248 Q 137.184 120.800 129.408 120.800 Z M 129.408 107.840 Q 133.344 107.840 136.272 106.016 Q 139.200 104.192 140.880 100.928 Q 142.560 97.664 142.560 93.440 Q 142.560 89.216 140.880 86.000 Q 139.200 82.784 136.272 80.912 Q 133.344 79.040 129.408 79.040 Q 125.472 79.040 122.496 80.912 Q 119.520 82.784 117.840 86.000 Q 116.160 89.216 116.160 93.440 Q 116.160 97.664 117.840 100.928 Q 119.520 104.192 122.496 106.016 Q 125.472 107.840 129.408 107.840 Z M 184.704 120.800 Q 178.368 120.800 173.904 118.064 Q 169.440 115.328 167.136 110.432 Q 164.832 105.536 164.832 99.008 L 164.832 67.232 L 179.232 67.232 L 179.232 97.856 Q 179.232 100.832 180.432 103.088 Q 181.632 105.344 183.840 106.592 Q 186.048 107.840 188.832 107.840 Q 191.712 107.840 193.872 106.592 Q 196.032 105.344 197.232 103.088 Q 198.432 100.832 198.432 97.856 L 198.432 67.232 L 212.832 67.232 L 212.832 119.648 L 199.392 119.648 L 199.392 113.312 Q 197.568 116.672 194.304 118.496 Q 190.176 120.800 184.704 120.800 Z M 223.392 119.648 L 223.392 67.232 L 236.832 67.232 L 236.832 75.008 Q 238.560 70.784 241.632 68.960 Q 245.568 66.656 251.040 66.656 L 254.112 66.656 L 254.112 79.136 L 249.600 79.136 Q 244.320 79.136 241.056 82.352 Q 237.792 85.568 237.792 91.424 L 237.792 119.648 Z M 285.696 120.224 Q 276.192 120.224 270.960 115.088 Q 265.728 109.952 265.728 100.736 L 265.728 79.712 L 256.896 79.712 L 256.896 67.232 L 257.376 67.232 Q 261.408 67.232 263.568 65.216 Q 265.728 63.200 265.728 59.168 L 265.728 55.328 L 280.128 55.328 L 280.128 67.232 L 292.416 67.232 L 292.416 79.712 L 280.128 79.712 L 280.128 99.776 Q 280.128 102.464 281.088 104.240 Q 282.048 106.016 284.064 106.880 Q 286.080 107.744 289.056 107.744 Q 289.728 107.744 290.592 107.648 Q 291.456 107.552 292.416 107.456 L 292.416 119.648 Q 290.976 119.840 289.152 120.032 Q 287.328 120.224 285.696 120.224 Z" fill="#FFFFFF"/>
  <!-- Sub — gradient -->
  <path id="sub" d="M 327.936 120.800 Q 321.216 120.800 315.312 118.352 Q 309.408 115.904 305.136 111.392 Q 300.864 106.880 298.752 100.736 L 310.944 95.264 Q 313.632 101.120 318.384 104.480 Q 323.136 107.840 328.896 107.840 Q 331.968 107.840 334.176 106.880 Q 336.384 105.920 337.632 104.240 Q 338.880 102.560 338.880 100.256 Q 338.880 97.760 337.344 95.984 Q 335.808 94.208 332.544 93.152 L 318.528 88.544 Q 309.984 85.760 305.664 80.624 Q 301.344 75.488 301.344 68.288 Q 301.344 61.952 304.464 57.152 Q 307.584 52.352 313.200 49.664 Q 318.816 46.976 326.112 46.976 Q 332.544 46.976 338.016 49.184 Q 343.488 51.392 347.472 55.424 Q 351.456 59.456 353.472 65.120 L 341.376 70.592 Q 339.360 65.600 335.328 62.768 Q 331.296 59.936 326.112 59.936 Q 323.136 59.936 320.832 60.896 Q 318.528 61.856 317.280 63.632 Q 316.032 65.408 316.032 67.712 Q 316.032 70.208 317.664 72.080 Q 319.296 73.952 322.560 75.008 L 336.288 79.424 Q 344.928 82.208 349.200 87.200 Q 353.472 92.192 353.472 99.392 Q 353.472 105.632 350.208 110.480 Q 346.944 115.328 341.232 118.064 Q 335.520 120.800 327.936 120.800 Z M 381.792 120.800 Q 375.456 120.800 370.992 118.064 Q 366.528 115.328 364.224 110.432 Q 361.920 105.536 361.920 99.008 L 361.920 67.232 L 376.320 67.232 L 376.320 97.856 Q 376.320 100.832 377.520 103.088 Q 378.720 105.344 380.928 106.592 Q 383.136 107.840 385.920 107.840 Q 388.800 107.840 390.960 106.592 Q 393.120 105.344 394.320 103.088 Q 395.520 100.832 395.520 97.856 L 395.520 67.232 L 409.920 67.232 L 409.920 119.648 L 396.480 119.648 L 396.480 113.312 Q 394.656 116.672 391.392 118.496 Q 387.264 120.800 381.792 120.800 Z M 449.856 120.800 Q 444.480 120.800 439.968 118.784 Q 436.416 117.344 433.920 114.656 L 433.920 119.648 L 420.480 119.648 L 420.480 46.976 L 434.880 46.976 L 434.880 71.648 Q 436.896 69.632 439.776 68.192 Q 444.192 66.080 449.952 66.080 Q 457.440 66.080 463.488 69.728 Q 469.536 73.376 473.088 79.568 Q 476.640 85.760 476.640 93.440 Q 476.640 101.024 473.136 107.264 Q 469.632 113.504 463.584 117.152 Q 457.536 120.800 449.856 120.800 Z M 448.128 107.840 Q 452.160 107.840 455.232 106.016 Q 458.304 104.192 460.032 100.928 Q 461.760 97.664 461.760 93.440 Q 461.760 89.216 460.032 86.000 Q 458.304 82.784 455.232 80.912 Q 452.160 79.040 448.128 79.040 Q 444.288 79.040 441.264 80.864 Q 438.240 82.688 436.560 85.952 Q 434.880 89.216 434.880 93.440 Q 434.880 97.664 436.560 100.928 Q 438.240 104.192 441.264 106.016 Q 444.288 107.840 448.128 107.840 Z" fill="url(#sub-grad)"/>
</svg>